<?xml version="1.0" encoding="iso-8859-1"?>
<!-- Uploaded to: SVG Repo, www.svgrepo.com, Generator: SVG Repo Mixer Tools -->
<svg height="800px" width="800px" version="1.1" id="Layer_1" xmlns="http://www.w3.org/2000/svg" xmlns:xlink="http://www.w3.org/1999/xlink" 
	 viewBox="0 0 512 512" xml:space="preserve">
<path style="fill:#B1EAE5;" d="M510.461,227.919C496.474,99.748,387.893,0,256,0C114.616,0,0,114.616,0,256
	c0,118.873,81.026,218.811,190.859,247.625L510.461,227.919z"/>
<path style="fill:#B0B7B6;" d="M512,256c0-9.491-0.533-18.857-1.539-28.081L358.315,75.774L256,418.507l-128,22.261l62.858,62.858
	C211.659,509.083,233.488,512,256,512C397.384,512,512,397.384,512,256z"/>
<polygon style="fill:#D8F4F2;" points="361.739,396.246 256,396.246 233.739,418.507 256,440.767 384,440.767 "/>
<polygon style="fill:#FFFFFF;" points="150.261,396.246 128,440.767 256,440.767 256,396.246 "/>
<path style="fill:#C92B31;" d="M256,33.394l-44.522,192.927L256,418.507l115.823-153.679c18.129-24.17,28.872-54.199,28.872-86.738
	C400.696,98.176,335.913,33.394,256,33.394z"/>
<path style="fill:#F63341;" d="M111.304,178.089c0,32.54,10.743,62.569,28.872,86.738L256,418.507V33.394
	C176.087,33.394,111.304,98.176,111.304,178.089z"/>
<path style="fill:#D8F4F2;" d="M256,91.272l-44.522,86.817L256,264.907c47.948,0,86.817-38.869,86.817-86.817
	S303.948,91.272,256,91.272z"/>
<path style="fill:#FFFFFF;" d="M169.183,178.089c0,47.949,38.87,86.817,86.817,86.817V91.272
	C208.052,91.272,169.183,130.141,169.183,178.089z"/>
</svg>